<svg xmlns="http://www.w3.org/2000/svg" width="18" height="22" viewBox="0 0 18 22" fill="none">
<path d="M12.3204 6.14116H14.4262C15.1139 6.14116 15.6878 6.66663 15.7491 7.35231L16.9946 19.5519C17.0641 20.3299 16.452 21 15.6717 21H2.32828C1.54804 21 0.93587 20.3299 1.00539 19.5519L2.2509 7.35231C2.31217 6.66663 2.88612 6.14116 3.57379 6.14116H5.67956M12.3204 6.14116V9.93055M12.3204 6.14116V4.32403C12.3204 2.48822 10.8338 1 9 1C7.16617 1 5.67956 2.48822 5.67956 4.32403V6.14116M12.3204 6.14116H5.67956M5.67956 6.14116V9.93055" stroke="currentColor" stroke-width="var(--icon-stroke-width)" stroke-linecap="square"/>
</svg>
