<svg xmlns="http://www.w3.org/2000/svg" width="22" height="22" viewBox="0 0 22 22" fill="none">
  <path d="M11 13.0379C13.0154 13.0379 14.6493 11.4515 14.6493 9.43602C14.6493 7.42057 13.0154 5.78673 11 5.78673C8.98455 5.78673 7.35071 7.42057 7.35071 9.43602C7.35071 11.4515 8.98455 13.0379 11 13.0379ZM11 13.0379C14.2732 13.0379 17.0082 15.3422 17.6713 18.4171M11 13.0379C7.72682 13.0379 4.99183 15.3422 4.32874 18.4171M21 11C21 16.5228 16.5228 21 11 21C5.47715 21 1 16.5228 1 11C1 5.47715 5.47715 1 11 1C16.5228 1 21 5.47715 21 11Z" stroke="currentColor" stroke-width="var(--icon-stroke-width)"/>
</svg>
